<?xml version="1.0" encoding="utf-8"?>
<!-- Generator: Adobe Illustrator 17.0.0, SVG Export Plug-In . SVG Version: 6.00 Build 0)  -->
<!DOCTYPE svg PUBLIC "-//W3C//DTD SVG 1.1//EN" "http://www.w3.org/Graphics/SVG/1.1/DTD/svg11.dtd">
<svg width="565" height="565" xmlns="http://www.w3.org/2000/svg" xmlns:svg="http://www.w3.org/2000/svg">
 <g>
  <title>Layer 1</title>
  <g stroke="null" id="svg_26">
   <path stroke="null" id="svg_27" d="m234.958923,15.522255c28.115265,0.014404 47.971161,20.341045 72.104401,60.244934c39.442749,65.214653 53.432343,100.401024 61.063263,120.415749c0,0 -17.518707,22.260788 -73.880157,53.862946c-31.382446,17.596786 -59.403259,21.485641 -78.075317,21.476425c-14.860687,-0.007233 -23.8013,-2.483826 -23.8013,-2.483826s-26.07753,-52.620529 -52.158127,-101.046432c-26.080597,-48.424866 -43.252075,-85.227303 28.075638,-127.795181c27.682739,-16.52212 48.837158,-24.683865 66.6716,-24.674614" fill="#425457" opacity="0.2"/>
   <g stroke="null" id="svg_28">
    <path stroke="null" id="svg_29" d="m387.777313,375.102966c0,0 17.41217,-21.508331 41.593109,5.615112c24.18103,27.122406 64.518188,-3.411255 66.615845,46.50827s-61.986145,33.964508 -67.924561,25.786285c-5.937286,-8.179199 -55.151184,-56.400299 -40.284393,-77.909668z" fill="#425356"/>
    <path stroke="null" id="svg_30" d="m388.412872,377.577545c0,0 25.147522,1.949646 35.963409,19.382721c10.814819,17.434143 57.291382,19.394012 60.159607,12.616821c2.868103,-6.777283 -7.3172,-10.977051 -16.865967,-11.627625c-9.549744,-0.650513 -27.376038,-1.62738 -38.512756,-12.606445c-11.137634,-10.978058 -22.273193,-23.247955 -40.744293,-7.765472z" fill="#627377"/>
    <path stroke="null" id="svg_31" d="m204.408051,389.212311c0,0 -50.505264,-7.771606 -71.739914,15.455688c0,0 -24.625702,17.201538 -17.431412,61.528534c0,0 39.890488,16.372925 80.214508,13.379578c0,0 1.707703,-20.224731 -4.228668,-33.137939c0,0 29.285858,1.735474 42.869324,-1.699432s-29.683838,-55.526428 -29.683838,-55.526428z" fill="#DCDCDB"/>
    <path stroke="null" id="svg_32" d="m207.581848,408.471497c0,0 -22.124023,-1.961945 -30.407745,12.88028c0,0 12.23114,51.660156 -32.332748,44.861206c-41.698669,-7.120972 -26.720184,-40.678955 -26.720184,-40.678955s6.058182,-20.652863 16.246536,-22.907196c0,0 13.380417,-21.402283 70.041351,-13.413513l3.172791,19.258179z" fill="#F2F2F2"/>
    <path stroke="null" id="svg_33" d="m318.130951,451.667267c0,0 64.912109,58.988007 92.08313,46.090302c27.17099,-12.89679 20.380768,-14.620911 25.904938,-27.097748c5.52417,-12.476776 5.981018,-81.329132 -47.919342,-90.392609c-53.90036,-9.063416 -70.068726,71.400055 -70.068726,71.400055z" fill="#DCDCDB"/>
    <path stroke="null" id="svg_34" d="m371.204865,415.115967c0,0 42.855133,27.993256 45.81366,54.67514c0,0 12.753998,-40.659424 -33.413025,-71.690308l-12.400635,17.015167z" fill="#C7C7C7"/>
    <path stroke="null" id="svg_35" d="m115.79007,199.177307c1.913834,-6.669174 8.926361,-26.676697 1.504639,-39.374802s-26.525284,-6.467422 -18.889359,2.787491c0,0 0.423416,2.796768 -0.001999,4.734009c0,0 -0.584793,-1.649033 -1.641724,-4.187424c-0.87822,-1.664459 -1.979828,-3.163208 -2.881378,-4.81839c-1.098541,-2.015472 -1.998062,-4.20079 -3.321991,-6.078339c-2.787949,-3.954758 -6.339432,-6.985184 -9.398483,-10.645569c-2.589981,-3.098343 -3.481384,-7.182816 -6.517105,-9.986771c-2.449875,-2.262527 -5.351547,-3.703613 -8.28064,-5.162216c-2.548355,-0.677299 -5.411469,-1.03241 -8.473557,-0.669067c-13.950989,1.657257 -17.411102,18.495407 -5.315033,18.931839c0,0 9.652313,7.912643 10.4422,20.661179c-6.951614,-5.061295 -23.253029,-20.307053 -37.122803,-16.363617c1.28331,1.960938 1.945297,4.982086 2.393005,7.00061c0.644722,2.910004 2.111824,5.550293 3.09053,8.352203c0.074127,0.210007 0.15332,0.432312 0.235535,0.660828c0.145203,-0.10907 0.333023,-0.166718 0.551323,-0.131714c5.237816,0.846085 6.610497,5.890961 6.873482,10.582748c0.022324,0.392181 -0.334053,0.695862 -0.697517,0.706131c-0.099487,0.003098 -0.193947,-0.009277 -0.291367,-0.011322c-0.045715,0.054581 -0.077194,0.112228 -0.133026,0.163666c0,0 -17.190781,1.71286 -23.138298,10.962616c-5.946518,9.249741 -0.430473,12.263718 -0.430473,12.263718s-4.670296,3.816833 -4.673355,9.196213s4.09565,7.201355 10.182274,10.81749c6.524193,3.875504 16.868904,5.817886 19.577705,1.300034c0.31678,2.421051 1.006119,3.658325 1.006119,3.658325s5.085564,17.000824 21.638756,16.7939c16.554184,-0.206894 55.827393,-26.868149 55.827393,-26.868149s-4.027634,-8.60643 -2.114853,-15.27562z" fill="#627377"/>
    <path stroke="null" id="svg_36" d="m62.49379,257.191681l-4.133209,-10.168976c0,0 15.775482,-35.171982 63.843063,-32.887863l4.931213,6.940933l-64.641068,36.115906z" fill="#A9B3B5"/>
    <path stroke="null" id="svg_37" d="m62.494827,255.739227c0,0 12.116394,-40.445313 64.10907,-35.25531c0,0 4.878418,4.951172 -2.126038,7.959976c-7.005432,3.009827 -62.838928,41.280106 -61.983032,27.295334z" fill="#8D9699"/>
    <path stroke="null" id="svg_38" d="m66.527527,254.880768c0,0 12.088974,-34.958878 56.879196,-31.385971l33.521622,46.061478c0,0 34.162231,13.034698 44.029755,13.038818c0,0 20.686401,21.441406 7.61261,60.584595c0,0 -45.421753,5.882751 -75.869034,-8.655823c0.000992,0.001007 -48.473709,-39.828796 -66.174149,-79.643097z" fill="#DCDCDB"/>
    <g stroke="null" id="svg_39">
     <path stroke="null" id="svg_40" d="m211.890686,316.740753c0.027466,0.05658 0.11676,-0.043243 0.173615,-0.067963c0,-0.001007 -0.001007,-0.002045 -0.001007,-0.002045c0.016266,-0.006195 0.032501,-0.010284 0.047699,-0.016479c0.449799,-0.191467 0.909729,-0.353088 1.36557,-0.528076c-0.300537,-2.06485 -0.72998,-3.828156 -1.218323,-5.083984c-0.97467,-2.508484 -1.728027,-5.325836 -2.532135,-8.308899c-1.515778,-5.613068 -3.790009,-14.09494 -6.924194,-14.224609c-11.265594,-0.465271 -42.008362,-11.631714 -45.480652,-12.903992c-0.848785,-0.310883 -1.560471,-0.78952 -2.211288,-1.407104c-11.455429,-10.858643 -28.17308,-36.273392 -33.739899,-44.873627c-0.826416,-0.027786 -2.197037,-0.042175 -2.197037,-0.042175l-0.258896,0c-18.513718,-0.007248 -30.341782,7.267197 -37.456848,14.370773c4.043869,6.423141 32.452499,50.582382 60.516922,68.930618c0,0 40.787018,6.365509 69.315491,3.262024c0.036499,-0.029846 0.158325,0 0.600983,0.895538z" fill="#F2F2F2"/>
    </g>
    <path stroke="null" id="svg_41" d="m205.048676,343.275421c-3.144318,-8.187469 -15.311462,-45.452118 16.547119,-61.8909l-3.636749,-0.825531c0,0 -33.990662,12.420197 -15.817078,62.715363l2.906708,0.001068z" fill="#DCDCDB"/>
    <path stroke="null" id="svg_42" d="m378.09256,214.154434c0,0 19.935059,29.272705 21.5961,105.01149c1.103638,50.33844 -22.558594,130.378845 -110.424194,139.373291c-87.865723,8.993469 -96.311859,-78.797974 -77.611359,-130.428223c0,0 -1.687408,-20.657074 -10.166016,-43.0383c-8.116211,-21.429047 164.306305,-91.150208 176.605469,-70.918259z" fill="#048CB9"/>
    <path stroke="null" id="svg_43" d="m188.67218,279.396851c0,0 -34.727768,13.929199 -15.227203,64.472504l2.971741,0.001007c0,0 -20.009216,-45.051666 15.893219,-63.576935l-3.637756,-0.896576z" fill="#DCDCDB"/>
    <path stroke="null" id="svg_44" d="m367.437164,307.531128l-13.822083,-53.906174l-6.001312,-15.818054l-2.47525,1.802383c0,0 11.861481,15.624542 18.480194,62.432312c6.556702,46.371307 2.318878,73.335205 -20.848938,104.237335c-18.958313,25.289154 -40.477234,32.914673 -52.122528,35.211121c-2.311829,0.697937 -4.67749,1.520355 -7.070496,2.095795l2.200104,1.600647c27.440094,-2.846222 48.97226,-20.837189 59.644867,-37.130859c10.672668,-16.293579 21.664154,-34.361816 23.585114,-58.243835c1.922943,-23.883057 -1.569672,-42.28067 -1.569672,-42.28067z" fill="#1DACE3"/>
    <path stroke="null" id="svg_45" d="m352.190613,235.228348c0,0 -19.27002,21.04924 -7.50296,44.293045c11.767151,23.243835 16.06485,24.456421 27.524292,26.075592c11.459564,1.619171 -20.021332,-70.368637 -20.021332,-70.368637z" fill="#0C6788"/>
    <path stroke="null" id="svg_46" d="m182.81604,274.787415l6.786133,10.707336c0,0 43.710999,15.084137 103.67865,-14.47168c52.495239,-25.872787 88.527649,-61.601624 88.527649,-61.601624l-2.009247,-13.556549l-196.983185,78.922516z" fill="#626D70"/>
    <path stroke="null" id="svg_47" d="m347.61377,237.8069c0,0 24.28656,55.524338 21.716858,101.999588c-2.569672,46.474243 -17.341034,93.008209 -54.861847,112.645142l-2.813354,1.902252c0,0 94.97876,-16.197906 88.465698,-152.832123c-6.225708,-72.406723 -21.497559,-89.035904 -21.497559,-89.035904s-16.348114,14.408859 -31.009796,25.321045z" fill="#017499"/>
    <path stroke="null" id="svg_48" d="m185.685211,266.774933c0,0 -9.55481,9.676971 4.451019,11.943573s56.977722,8.420105 104.105103,-17.054291s85.660492,-57.083817 85.663574,-64.506454s-9.86557,-7.751038 -9.86557,-7.751038l-184.354126,77.36821z" fill="#8D9699"/>
    <g stroke="null" id="svg_49" opacity="0.2">
     <path stroke="#FFFFFF" id="svg_50" d="m368.127563,196.182938c-7.630859,-20.014725 -21.620422,-55.200073 -61.063171,-120.415749c-39.442749,-65.214646 -67.450348,-78.138179 -138.778107,-35.571339s-54.155197,79.369274 -28.075592,127.795193c26.07959,48.424866 52.158142,101.046402 52.158142,101.046402s45.516144,12.609589 101.877594,-18.991562c56.36145,-31.602158 73.881134,-53.862946 73.881134,-53.862946z" stroke-miterlimit="10" stroke-width="3" fill="none"/>
     <path stroke="null" id="svg_51" d="m234.959961,15.522255c28.115234,0.014404 47.97113,20.341045 72.104431,60.244934c39.442749,65.214653 53.432312,100.401024 61.063171,120.415749c0,0 -17.518768,22.260788 -73.880127,53.862946c-31.382385,17.596786 -59.403229,21.485641 -78.075287,21.476425c-14.860718,-0.007233 -23.802338,-2.483826 -23.802338,-2.483826s-26.07753,-52.620529 -52.158096,-101.046432s-43.252106,-85.227303 28.075607,-127.795181c27.683716,-16.52212 48.838165,-24.683865 66.672638,-24.674614m0.002045,-5.164257c-18.462921,-0.009268 -39.823456,7.821024 -69.258575,25.386929c-34.596771,20.64677 -51.458588,41.555992 -53.063766,65.804466c-1.421402,21.464073 9.142609,42.996048 23.101761,68.914154c25.738434,47.789719 51.816986,100.364975 52.077911,100.889938l1.019379,2.055603l2.189941,0.606323c0.391907,0.1091 9.775146,2.658783 25.141479,2.666016c18.728912,0.009247 47.905151,-3.820984 80.54245,-22.120819c56.595856,-31.73288 74.655792,-54.219055 75.396881,-55.159912l1.823456,-2.317078l-1.053864,-2.764832c-6.566803,-17.224182 -20.231537,-53.066254 -61.471313,-121.253639c-13.455505,-22.248425 -24.426697,-36.523495 -35.571442,-46.288984c-12.603729,-11.039791 -25.973999,-16.410954 -40.874298,-16.418165l0,0z" fill="#FFFFFF"/>
    </g>
    <polygon stroke="null" id="svg_52" points="322.2448425292969,231.09652709960938 279.7095947265625,256.1602478027344 236.81488037109375,270.001953125 218.64334106445312,242.47398376464844 311.9590759277344,195.9647216796875 " fill="#676767"/>
    <path stroke="null" id="svg_53" d="m170.977814,181.130737c0,0 -15.923706,12.336777 -37.138062,-1.444214c0,0 18.869064,37.797852 47.740662,20.598404c-0.000977,0 -5.937347,-14.418167 -10.6026,-19.15419z" fill="#425356"/>
    <path stroke="null" id="svg_54" d="m251.536499,21.918652c0,0 2.417358,18.581886 1.957458,30.056084l-67.828033,167.139111l-9.40863,9.154037l-23.941391,-46.963211c0,0 -21.113846,-39.06601 -24.646988,-52.858292s-10.851395,-38.061363 18.283203,-65.52243c23.52002,-21.622566 51.736816,-33.766888 62.052063,-37.709309c10.316284,-3.943443 30.491974,-9.144756 43.532318,-3.29599z" fill="#718587" opacity="0.5"/>
    <path stroke="null" id="svg_55" d="m161.345825,200.560745c6.776001,0.104004 12.31134,-2.766876 17.437469,-6.518875c-2.146301,-4.50441 -5.176941,-10.24411 -7.805481,-12.912186c0,0 -15.923706,12.336777 -37.138062,-1.444183c0,0 4.03273,7.755127 10.97522,15.19429c10.330536,9.885895 10.079773,5.582184 16.530853,5.680954z" fill="#627377"/>
    <path stroke="null" id="svg_56" d="m162.51239,184.496689c-5.807404,1.632568 -4.068207,8.528198 -1.817368,12.516937c2.135178,3.782852 5.557663,6.588882 9.541672,7.405182c3.549408,-0.456024 7.335419,-1.745789 11.342743,-4.132874c0,0 -5.935394,-14.419174 -10.601624,-19.154205c0,0 -2.996094,2.177094 -8.25119,3.255859c-0.06398,0.043228 -0.12793,0.085434 -0.214233,0.1091z" fill="#717272"/>
    <path stroke="null" id="svg_57" d="m162.51239,184.496689c-5.807404,1.632568 -4.068207,8.528198 -1.817368,12.516937c0.724945,1.283615 1.602127,2.451935 2.595078,3.473053c5.900818,-0.412796 10.869659,-3.058228 15.494263,-6.443756c-2.146332,-4.50444 -5.176941,-10.244141 -7.805511,-12.912186c0,0 -2.996109,2.177063 -8.25119,3.255829c-0.065018,0.04425 -0.128967,0.086456 -0.215271,0.110123z" fill="#909A9D"/>
    <g stroke="null" id="svg_58">
     <path stroke="null" id="svg_59" d="m325.95166,116.211487c0.591919,1.04583 1.183807,2.110191 1.776733,3.191002c-0.592926,-1.084923 -1.184814,-2.143097 -1.776733,-3.191002z" fill="#E8F6FD"/>
     <path stroke="null" id="svg_60" d="m328.851318,121.482811c0.437622,0.815231 0.875153,1.626396 1.313812,2.462227c-0.43866,-0.836884 -0.87619,-1.64492 -1.313812,-2.462227z" fill="#E8F6FD"/>
     <path stroke="null" id="svg_61" d="m323.334259,111.67617c0.695465,1.175507 1.391968,2.380882 2.08844,3.601715c-0.698517,-1.22493 -1.393982,-2.427231 -2.08844,-3.601715z" fill="#E8F6FD"/>
     <path stroke="null" id="svg_62" d="m243.941162,267.125946c-14.320587,-8.398468 1.28125,-17.750153 -7.308014,-28.406021c0,0 55.39389,-5.781891 64.955811,-30.62941c0,0 1.808228,0.440552 6.437927,3.841537c0.351288,-0.614517 2.886444,-0.836884 3.218414,-1.46994c10.975189,-20.940094 5.170868,-45.466476 1.517822,-67.561554c-0.09137,-0.55275 3.518005,-1.798279 0.001068,-1.075684c0.836517,-7.581161 -0.013184,-14.318298 3.787994,-20.995689c1.892456,-3.325851 4.214447,-6.351112 6.782135,-9.15712c-48.509308,-70.994465 -59.332153,-70.569344 -59.332153,-70.569344c2.543243,7.747932 2.111786,20.657063 2.111786,20.657063c-14.421082,-21.09351 -30.976288,-18.950397 -30.976288,-18.950397c2.119873,4.735035 2.116852,11.620361 2.116852,11.620361c-14.849548,-13.777893 -44.987213,-9.919872 -44.987213,-9.919872c11.027008,16.78875 13.562164,42.61005 13.562164,42.61005c-19.515808,-17.653381 -50.928635,-11.213753 -50.928635,-11.213753l1.694489,6.455063c-7.215591,-1.2939 -11.248291,0.42514 -11.248291,0.42514c15.273895,12.487068 18.444641,40.891022 18.444641,40.891022c-19.522903,-5.173523 -37.353302,2.56308 -37.353302,2.56308s15.270905,18.942154 31.385452,48.212845c25.763824,42.790176 42.882538,88.459457 44.453186,95.797745c8.746643,0.759644 26.081573,-0.537354 41.664154,-3.125122z" fill="#F3FAFD"/>
     <path stroke="null" id="svg_63" d="m327.728394,119.401466c0.374634,0.684509 0.748291,1.382416 1.121887,2.081345c-0.373596,-0.696869 -0.74823,-1.397858 -1.121887,-2.081345z" fill="#D2ECF9"/>
     <polygon stroke="null" id="svg_64" points="323.332275390625,111.67308807373047 323.332275390625,111.67308807373047 323.333251953125,111.6751480102539 " fill="#D2ECF9"/>
     <path stroke="null" id="svg_65" d="m330.165131,123.945038c0.851746,1.626373 1.702606,3.277451 2.553436,4.981033c-0.851837,-1.703583 -1.702667,-3.35775 -2.553436,-4.981033z" fill="#D2ECF9"/>
     <path stroke="null" id="svg_66" d="m325.421692,115.276848c0.176666,0.309837 0.353363,0.620682 0.530029,0.933624c-0.176666,-0.311905 -0.352356,-0.623787 -0.530029,-0.933624z" fill="#D2ECF9"/>
     <path stroke="null" id="svg_67" d="m309.881744,142.333374c0.370575,-0.237762 0.914795,-0.173965 1.005096,0.379807c3.653015,22.096115 9.150787,46.418686 -1.824463,67.358826c-0.331909,0.632004 -0.685272,1.246552 -1.03656,1.861069c4.672302,3.433899 12.76004,15.102661 6.389221,24.566498c17.731842,-11.436081 39.362488,-26.701385 48.230988,-35.057663c0.994995,-1.244507 1.447754,-1.925919 1.447754,-1.925919s-1.268005,-10.328506 -31.374207,-70.58992c-0.850861,-1.70256 -1.701691,-3.35466 -2.553467,-4.981033c-0.43866,-0.835831 -0.87619,-1.646996 -1.313782,-2.462227c-0.374634,-0.697906 -0.749298,-1.396835 -1.121857,-2.081345c-0.592926,-1.080826 -1.184845,-2.145172 -1.776764,-3.190994c-0.176666,-0.312943 -0.353333,-0.623787 -0.530029,-0.933624c-0.697449,-1.220818 -1.393951,-2.427231 -2.088409,-3.6017c0,0 -0.001007,-0.00206 -0.002014,-0.003098c-2.567627,2.806007 -4.888611,5.831284 -6.782074,9.15712c-3.802216,6.678429 -5.832825,13.923012 -6.669434,21.504204z" fill="#DDEAF0"/>
     <path stroke="null" id="svg_68" d="m279.642578,256.192139c0.022308,-0.010284 0.044647,-0.021576 0.066956,-0.031891" fill="#4E4D50"/>
    </g>
    <path stroke="null" id="svg_69" d="m294.033173,80.149147c5.277435,8.071159 7.855255,17.861328 9.447205,27.507393c4.499725,-1.953705 8.698944,-4.492096 12.777405,-7.238411c-17.79895,-26.555244 -41.400299,-53.331802 -48.440247,-57.37199c7.358765,5.858032 21.185944,29.411694 26.215637,37.103008z" fill="#DDEAF0"/>
    <path stroke="null" id="svg_70" d="m295.801788,105.669891c0,0 -7.227814,24.525345 22.049988,44.335251l-2.963623,-15.063553c0,0 42.880432,-23.647316 11.925446,-84.338966c0,-0.000019 -1.718842,42.171547 -31.01181,55.067268z" fill="#425356"/>
    <path stroke="null" id="svg_71" d="m311.519409,144.217087c-1.616302,-3.123047 -3.673248,-7.046936 -3.293549,-10.710419c0.39798,-3.843613 3.263062,-5.807617 5.961731,-8.209106c4.752594,-4.227539 8.640076,-8.848297 12.313324,-14.051674c12.177307,-17.257095 9.152802,-41.947151 0.281281,-60.099785c-0.316742,4.912048 -3.621552,42.480347 -30.980408,54.523773c0,0 -6.294708,21.390991 16.721771,40.354767c-0.339172,-0.600128 -0.68634,-1.195084 -1.00415,-1.807556z" fill="#627377"/>
    <path stroke="null" id="svg_72" d="m326.788239,124.302223c-5.242889,0.601143 -10.410675,-0.557922 -13.881897,-5.463814c-4.908936,-6.936813 -7.077545,-15.492805 -3.453003,-22.950455c-3.707794,3.967133 -8.200409,7.3815 -13.65155,9.780907c0,0 -7.227722,24.525352 22.049988,44.335258l-2.963623,-15.063538c0,0.001007 6.006439,-3.312454 11.900085,-10.638359z" fill="#717272"/>
    <path stroke="null" id="svg_73" d="m314.187592,125.29657c0.979797,-0.870819 1.914795,-1.764297 2.826538,-2.671165c-1.522949,-0.883186 -2.918915,-2.106064 -4.10788,-3.786995c-4.916962,-6.948128 -7.085663,-15.520576 -3.436737,-22.985435c-3.71286,3.977425 -8.20343,7.410309 -13.667725,9.815903c0,0 -6.294708,21.390968 16.721771,40.354713c-0.340179,-0.600098 -0.687347,-1.195053 -1.005157,-1.807526c-1.616364,-3.123032 -3.673309,-7.046936 -3.293549,-10.710388c0.398987,-3.843628 3.263092,-5.806595 5.962738,-8.209106z" fill="#909A9D"/>
    <path stroke="null" id="svg_74" d="m188.945313,222.305832c1.795013,8.698044 8.745636,14.583893 15.523682,13.145859c6.779053,-1.436966 12.524536,-10.218384 10.728455,-18.917419c-1.793976,-8.699036 -10.448242,-14.019775 -17.226257,-12.582809c-6.78006,1.438019 -10.820923,9.656387 -9.025879,18.35437z" fill="#DDEAF0"/>
    <path stroke="null" id="svg_75" d="m236.547882,199.120712c1.773682,8.593033 9.5802,14.326538 16.276001,12.906021c6.696838,-1.419449 12.086884,-10.094849 10.312195,-18.688934c-1.772675,-8.594055 -10.036041,-13.84993 -16.731812,-12.430435c-6.698853,1.418427 -11.631104,9.619278 -9.856384,18.213348z" fill="#DDEAF0"/>
    <path stroke="null" id="svg_76" d="m235.274719,196.352783c1.746246,8.460251 9.86145,13.585388 16.455688,12.186508c6.594238,-1.398911 11.591522,-9.799438 9.84726,-18.260696c-1.747314,-8.460251 -9.575165,-13.776871 -16.169464,-12.37796c-6.593231,1.400925 -11.878784,9.990891 -10.133484,18.452148z" fill="#FFFFFF"/>
    <path stroke="null" id="svg_77" d="m187.994995,219.278534c1.767609,8.563187 9.982269,14.045517 16.656769,12.629166c6.675446,-1.416397 12.022949,-9.918884 10.256348,-18.483109c-1.768616,-8.563202 -9.981232,-13.946686 -16.655731,-12.529266c-6.673431,1.416382 -12.023987,9.818985 -10.257385,18.383209z" fill="#FFFFFF"/>
    <path stroke="null" id="svg_78" d="m236.943848,182.701523c0.064941,0.523941 0.170563,1.05304 0.349213,1.580048c1.117859,0.217194 1.159454,-1.241379 2.870239,-2.041214c1.51889,-0.712326 2.547333,-0.321167 3.567719,0.063843c1.535065,1.194031 2.887451,3.134369 3.716919,5.588348c1.723969,5.080887 0.549255,10.402618 -2.615326,11.884888c-3.16568,1.48436 -7.130341,-1.431793 -8.85022,-6.517868c-1.378815,-4.061813 -0.901611,-8.270828 0.961456,-10.558044z" fill="#425356"/>
    <path stroke="null" id="svg_79" d="m244.43866,186.421585c0.853821,2.432388 -0.12085,5.240448 -2.176819,6.273911c-2.056946,1.033463 -4.415436,-0.100876 -5.269287,-2.533249s0.120819,-5.240417 2.176788,-6.273911c2.055939,-1.03241 4.415405,0.101929 5.269318,2.533249z" fill="#FFFFFF" opacity="0.6"/>
    <path stroke="null" id="svg_80" d="m202.600861,176.735382c0,0 -22.60022,-3.238342 -29.608704,8.699036c0,0 -4.132217,-13.235413 8.285706,-18.06926c12.416931,-4.833801 21.322998,9.370224 21.322998,9.370224z" fill="#BDDAE3"/>
    <path stroke="null" id="svg_81" d="m221.073944,157.05722c0,0 4.466248,-19.039932 19.749298,-24.519165c15.282013,-5.479233 20.373657,-1.280518 20.373657,-1.280518s-6.360718,-11.29921 -22.915924,-8.725838c-16.555237,2.573387 -22.295624,25.485771 -17.207031,34.52552z" fill="#BDDAE3"/>
    <path stroke="null" id="svg_82" d="m193.639954,202.045105c0.064972,0.523941 0.1716,1.053055 0.349274,1.580048c0.930023,2.750458 1.954437,-0.434357 3.665161,-1.233139c1.51889,-0.712326 3.295624,1.69635 2.772736,-0.74321c1.535095,1.194061 2.887482,3.134399 3.716949,5.588379c1.723969,5.080887 0.549255,10.402618 -2.615356,11.884888c-3.165649,1.484329 -7.13031,-1.431824 -8.85022,-6.517868c-1.377747,-4.062836 -0.900574,-8.271881 0.961456,-10.559097z" fill="#425356"/>
    <path stroke="null" id="svg_83" d="m201.054596,206.870712c0.808136,2.325302 -0.206085,5.043823 -2.264099,6.072144s-4.380951,-0.022644 -5.189087,-2.347931s0.206085,-5.043854 2.264069,-6.072174c2.057953,-1.028336 4.38092,0.022644 5.189117,2.347961z" fill="#FFFFFF" opacity="0.6"/>
    <path stroke="null" id="svg_84" d="m280.212128,170.717819c-46.144592,1.34021 -54.482056,12.592056 -54.482056,12.592056l0.013153,-0.003098c-4.874329,3.856964 -4.317993,7.432938 -7.02066,8.390289c-4.244904,1.503876 -8.676605,-0.486938 -19.951355,4.293396c-24.835846,10.530273 -26.751678,23.869659 -26.751678,23.869659c0.635529,2.796768 3.17984,7.101501 6.387115,8.603333c3.207275,1.500809 5.913025,10.122635 9.943695,13.566879c4.030701,3.445236 10.821899,2.587784 22.284454,-1.709732c11.462555,-4.297592 13.163147,-9.891068 13.801788,-14.193756s-2.962616,-18.505753 -2.962616,-18.505753c2.336151,-1.935135 5.680511,-1.984543 5.680511,-1.984543s2.954468,3.989777 6.147522,8.538467c3.194061,4.548691 6.203369,10.237946 10.872681,9.809708c4.669281,-0.428207 14.220032,-2.359253 30.351898,-9.45253c16.132843,-7.092239 13.589508,-15.91481 13.589508,-15.91481l-4.659119,-20.874252c4.881531,-0.858475 21.647949,-0.419968 21.647949,-0.419968l0.21521,-6.023788c-4.626709,-1.399933 -14.101257,-1.456528 -25.108002,-0.581558zm-73.608002,65.728256c-10.400574,3.436996 -15.91864,3.433914 -19.099518,-2.591919s-7.208527,-14.419174 -7.208527,-14.419174s12.53064,-19.142853 34.389679,-18.917419c0,0 4.450043,15.278671 4.658142,21.733719c0.210114,6.455109 -2.339233,10.756744 -12.739777,14.194794zm57.311707,-23.208817c-18.466949,6.445801 -19.132996,6.614594 -22.40625,2.869827c-3.272278,-3.743744 -11.543793,-14.50563 -13.663727,-20.31633c-2.118927,-5.810715 11.041199,-12.043427 20.805206,-14.620926c9.764008,-2.577515 21.861084,-3.647018 28.226929,-2.568253l5.507874,22.16507c0,-0.001053 -0.003052,6.024811 -18.470032,12.470612z" fill="#717272"/>
    <path stroke="null" id="svg_85" d="m219.33374,223.715042c-0.231476,5.651138 -3.138245,9.560623 -12.729614,12.731064c-8.265381,2.731888 -13.441345,3.278473 -16.816162,0.367462c0.828491,1.248611 1.773712,2.377792 3.196136,3.045837c1.370636,0.643356 2.751404,0.996429 4.14032,1.16832c2.988007,-0.033951 6.036896,-0.992279 8.740601,-2.089584c3.556519,-1.443161 9.844177,-3.570801 11.943787,-7.052078c1.240662,-2.054611 1.707703,-5.142654 1.524933,-8.171021z" fill="#737F82"/>
    <path stroke="null" id="svg_86" d="m243.214233,217.787003c0.669037,0.901703 1.408142,1.58522 2.203156,2.096786c8.519226,-0.810104 16.779541,-2.983047 24.558655,-6.82666c4.909943,-2.426178 10.961029,-5.67894 14.389679,-10.434555c-0.96051,-3.624329 -2.039795,-7.216797 -3.285522,-10.753647c-0.957367,-2.720566 -1.864044,-5.606888 -2.983856,-8.36145l4.288544,17.259171c0,0 -0.003143,6.023758 -18.470032,12.470612c-14.994751,5.234283 -18.25177,6.328461 -20.700623,4.549744z" fill="#737F82"/>
    <path stroke="null" id="svg_87" d="m191.096649,266.453766c0,0 31.615936,12.602356 88.078918,-11.898254c56.463898,-24.501724 87.678802,-60.955215 87.678802,-60.955215l1.272217,2.582642c0,0 -31.214905,36.455582 -87.678894,60.955154c-56.463959,24.501709 -88.078857,11.898315 -88.078857,11.898315l-1.272186,-2.582642z" fill="#425356"/>
    <path stroke="null" id="svg_88" d="m211.49472,326.871613c0,0 30.527588,-41.995514 99.919159,-30.342224c0,0 -39.779877,-25.73175 -101.241028,19.421814l1.321869,10.92041z" fill="#017499"/>
    <path stroke="null" id="svg_89" d="m220.173401,338.822388c0,0 25.428711,-29.011261 62.461212,-26.319489c14.873901,1.10553 23.04184,0.267609 27.956818,-0.159546c0.813263,2.153412 1.45694,4.410767 1.45694,4.410767l-5.318054,12.371796c0,0 -38.828461,-17.770721 -78.025482,13.521545c0,0 -3.090515,8.399536 -2.184906,12.792847c5.447998,-3.24353 50.112366,-17.3508 69.893066,-3.593506c20.666138,14.374939 23.942474,42.020233 -4.020477,55.373016c-27.962891,13.352722 -57.733063,8.754669 -71.525696,0.72879c0,0 -1.806183,-2.407684 -2.176758,-3.438049c-0.901581,-2.51059 -0.904633,-5.534882 -0.903595,-8.783447c0,0 23.049988,11.086121 43.02063,7.659393c19.970612,-3.427734 37.763397,-10.102081 37.408051,-24.231995c-0.356323,-14.129913 -21.041718,-32.853821 -82.413544,-7.297058c0,0 -1.270111,-1.528625 -2.176788,-3.43808c-0.21933,-5.489502 1.913788,-17.425903 6.548584,-29.596985z" fill="#017499"/>
    <path stroke="null" id="svg_90" d="m217.99762,335.384369c0,0 21.678314,-24.797089 61.686554,-25.579407c20.780853,-0.167786 30.908264,2.537323 30.908264,2.537323l-4.794128,12.860779c0,0 -38.956421,-14.924622 -79.270264,14.005371c0,0 -3.090546,8.399506 -2.184906,12.792786c5.447998,-3.2435 50.112305,-17.3508 69.893127,-3.593475c20.666077,14.374908 23.942383,42.020233 -4.020569,55.373047c-27.962921,13.352783 -57.733032,8.754578 -71.525635,0.728729c0,0 -3.082428,-7.638824 -3.080353,-12.221497c0,0 23.049957,11.08609 43.020569,7.658386c19.970612,-3.427765 37.763428,-10.102051 37.408142,-24.232025c-0.355408,-14.129913 -21.041779,-32.853851 -82.413605,-7.297058c-0.000031,0 -1.808258,-16.805206 4.372803,-33.032959z" fill="#F2F2F2"/>
    <path stroke="null" id="svg_91" d="m269.401428,281.01709l-12.73468,3.544006l1.266022,14.5242c0,0 -38.214233,28.06015 -25.507996,84.546906c3.974884,17.670898 9.385315,31.251129 15.498352,41.75058c4.687531,-0.018585 9.364868,-0.24292 14.040375,-0.541473c0.276093,-0.730804 0.76651,-1.34024 1.227417,-1.968079c-7.664398,-10.782471 -14.242401,-24.835236 -17.712646,-43.107269c-10.158905,-57.454346 26.780182,-82.932892 26.780182,-82.932892l-2.857025,-15.815979z" fill="#627377"/>
    <path stroke="null" id="svg_92" d="m263.59198,445.399506c0,0 -37.83252,6.516846 -52.034271,-26.841339c0,0 13.788513,45.358429 74.399933,40.423676l-22.365662,-13.582336z" fill="#017499"/>
    <path stroke="null" id="svg_93" d="m269.401428,281.01709l-12.73468,3.544006l1.266022,14.5242c0,0 -38.214233,28.06015 -25.507996,84.546906c4.040863,17.965302 9.565979,31.695862 15.803925,42.264252c0.44165,0.013367 0.881256,0.026733 1.314789,0.039032c3.328094,0.103973 6.657196,0.09787 9.983276,-0.058655c0.654877,-0.030884 1.306671,-0.083374 1.960541,-0.122467c0.242615,-0.317078 0.476196,-0.648468 0.7117,-0.978943c0.008118,-0.020569 0.007111,-0.041168 0.01828,-0.06073c0.316772,-0.602173 0.738129,-1.13736 1.03656,-1.749878c-7.720154,-10.804047 -14.285034,-24.820801 -17.775574,-43.198883c-10.158905,-57.454315 26.780182,-82.932861 26.780182,-82.932861l-2.857025,-15.815979z" fill="#8D9699"/>
    <path stroke="null" id="svg_94" d="m263.334045,423.094482c-7.727295,-10.809204 -14.363159,-24.93811 -17.85675,-43.328552c-10.158936,-57.454346 26.780121,-82.932861 26.780121,-82.932861l-2.857025,-15.81604l-3.608337,0.643341l2.751434,13.987915c0,0 -36.913666,25.701904 -26.143555,83.040924c3.834686,20.415131 11.063568,35.631073 19.237549,46.927185c0.561523,-0.846039 1.116882,-1.692261 1.696564,-2.521912z" fill="#626D70"/>
    <path stroke="null" id="svg_95" d="m248.989105,344.803986l-6.944519,1.285645c0,0 -1.23053,10.454132 -0.822357,12.745453l8.124298,-1.57077l-0.357422,-12.460327z" fill="#F2F2F2"/>
    <path stroke="null" id="svg_96" d="m253.345703,325.594208l-5.84494,2.082397c0,0 3.233673,-10.107208 7.28363,-14.101105c0,0 6.056152,-1.571838 7.212585,-1.715973c0.953308,0.072083 -8.651276,13.73468 -8.651276,13.73468z" fill="#F2F2F2"/>
    <path stroke="null" id="svg_97" d="m368.076813,299.720367c0,0 15.928741,9.443298 32.367188,10.145294c0,0 -0.148193,-12.611603 -1.609253,-21.451691c-1.460907,-8.841125 -30.757935,11.306396 -30.757935,11.306396z" fill="#0C6788"/>
    <path stroke="null" id="svg_98" d="m255.67984,400.373627c0,0 -4.402252,0.236786 -5.627686,0.139984c0,0 2.648865,7.782928 5.278442,11.793274c0,0 6.878571,-0.520844 8.421753,-0.950043c1.068115,-0.296509 -8.07251,-10.983215 -8.07251,-10.983215z" fill="#F2F2F2"/>
    <path stroke="null" id="svg_99" d="m495.61261,213.674744c-2.218384,-21.787247 -23.547485,-19.215973 -23.547485,-19.215973c-18.314697,-4.917206 -37.272034,-2.497208 -53.25769,2.054611c-21.739227,10.265732 -42.629761,22.209305 -61.297699,37.479782c-12.382477,16.030106 -12.09613,30.935089 -5.978027,46.580231c3.739258,9.561676 9.479675,15.581299 16.223206,18.672485c4.14035,1.186829 8.856293,-0.04425 13.286041,-1.516266c0.57666,-0.192474 1.143158,-0.407623 1.712769,-0.613464c1.093414,-0.517761 2.140228,-1.090118 3.49054,-1.808594c4.594086,-2.444702 9.2005,-4.94809 13.717499,-7.535858c8.491791,-4.864746 16.865845,-11.138672 26.777069,-12.464447c0.766479,-0.819366 1.19696,-1.312439 1.19696,-1.312439c2.382935,10.49118 10.178284,19.370361 10.178284,19.370361l72.750061,-20.296753c2.883423,-39.213242 -15.251526,-59.393677 -15.251526,-59.393677z" fill="#DCDCDB"/>
    <path stroke="null" id="svg_100" d="m411.097382,205.725037c0,0 6.683594,2.262497 7.477539,8.072189c0.792938,5.809647 -1.757446,13.070724 -8.445099,19.683243c0,0 25.315063,-15.639969 44.890747,-10.467438c0,0 -9.085815,26.783722 13.666687,45.19165c0,0 21.809326,-6.121552 35.973511,-1.757111c0,0 2.557556,-23.236603 -15.255554,-50.679169c0,0 2.076233,-14.038315 -18.775696,-14.371826c-0.000977,0.001083 -24.349487,-9.047989 -59.532135,4.328461z" fill="#F2F2F2"/>
    <path stroke="null" id="svg_101" d="m451.9422,224.518967c0,0 -31.326569,9.030548 -28.975128,51.539719c1.204041,-0.31604 2.430511,-0.565125 3.680389,-0.73703l1.183777,-1.246521c-0.000977,-0.000031 -5.821625,-32.78801 24.110962,-49.556168z" fill="#C7C7C7"/>
    <path stroke="null" id="svg_102" d="m410.99176,205.779602c0,0 34.897339,-14.411972 59.68042,-5.141617c0,0 20.755371,-1.489517 18.625366,14.862823c0,0 17.180664,19.158325 15.468811,49.281296c0,0 -1.473206,-26.251617 -18.863953,-48.421799c0,0 5.52417,-11.831375 -16.971436,-13.778915c0,-0.002075 -18.672058,-8.40155 -57.939209,3.198212z" fill="#FFFFFF"/>
    <polygon stroke="null" id="svg_103" points="241.22222900390625,358.8350830078125 243.3299560546875,362.5603332519531 245.170654296875,358.1207275390625 " fill="#118EA3"/>
    <path stroke="null" id="svg_104" d="m253.054321,325.744507c0,0 -4.226593,1.360779 -5.554626,1.932098l1.145233,2.831726l4.409393,-4.763824z" fill="#118EA3"/>
    <path stroke="null" id="svg_105" d="m261.435455,411.833374c0,0 -5.44693,0.427155 -6.103851,0.474487l3.446869,3.176575l2.656982,-3.651062z" fill="#118EA3"/>
    <path stroke="null" id="svg_106" d="m525.125916,294.4841l-3.177856,-11.190125c0,0 -1.901611,-17.860321 -37.131958,-13.789185c-35.231384,4.071075 -49.669739,18.695099 -47.128479,30.31546c2.540283,11.619324 87.438293,-5.336151 87.438293,-5.336151z" fill="#626D70"/>
    <path stroke="null" id="svg_107" d="m439.598389,294.656006c0,0 23.997253,-33.553864 70.467834,-18.038422c20.688416,6.787598 30.213806,58.432251 -14.991699,62.283081c-45.205505,3.8508 -60.997192,-35.210052 -55.476135,-44.244659z" fill="#425356"/>
    <path stroke="null" id="svg_108" d="m439.598389,294.656006c0,0 -9.450195,12.904968 -9.136536,21.620483c0.313721,8.714508 -11.46756,14.84021 2.532166,29.371582c13.999756,14.530334 20.685425,13.243652 25.13739,22.604584s12.092041,10.334686 33.425171,1.307281c21.33313,-9.026398 21.973816,-16.126923 26.119141,-31.616547c4.146423,-15.489716 8.617737,-47.763031 -14.615967,-56.488831c-23.233765,-8.724823 -43.499878,-10.99353 -63.461365,13.201447z" fill="#627377"/>
    <path stroke="null" id="svg_109" d="m483.625183,317.101013c0,0 19.959473,14.997681 24.942505,33.102966c-0.000061,0 4.236694,-25.887207 -24.942505,-33.102966z" fill="#57666A"/>
    <path stroke="null" id="svg_110" d="m367.331573,360.86499c0,0 -19.323944,79.520569 -82.993347,83.362122c0,0 11.297058,8.074249 22.384979,11.65744c0,0 16.078033,-3.542023 21.491486,-7.413422c5.413544,-3.870392 45.23291,-59.040588 44.685669,-80.18042c-0.549194,-21.139832 -5.568787,-7.42572 -5.568787,-7.42572z" fill="#017499"/>
    <path stroke="null" id="svg_111" d="m211.092682,326.871613c0,0 15.252625,-20.863953 45.929413,-28.59436l0,0.699982l-1.534119,1.881622c0,0 -22.923096,5.031464 -44.899902,28.985535l0.504608,-2.972778z" fill="#1DACE3"/>
    <path stroke="null" id="svg_112" d="m271.94165,295.460907c0,0 23.399261,-3.29599 39.473206,1.068451c0,0 -29.047272,-2.112213 -40.429596,1.270264l1.273193,-0.96759l-0.316803,-1.371124z" fill="#1DACE3"/>
    <path stroke="null" id="svg_113" d="m265.50174,446.907532c0,0 -22.496643,1.602722 -34.589722,-6.471466c-12.093048,-8.075317 -16.015045,-14.74762 -16.015045,-14.74762s15.322632,15.194305 27.05014,17.657501c11.167145,2.346008 12.41394,2.023743 21.885498,2.02887l1.669128,1.532715z" fill="#1DACE3"/>
    <path stroke="null" id="svg_114" d="m52.580582,130.293045c0,0 -5.943481,3.116852 -5.308914,6.990326c0.634537,3.872406 2.544296,5.165314 6.204376,5.489532c3.66011,0.324265 11.303192,-4.027832 13.692139,-6.447876c2.388947,-2.419983 4.406311,-5.861099 -1.641724,-7.31662c-6.047028,-1.455505 -9.602539,-0.972748 -12.945877,1.284637z" fill="#7B898D"/>
    <path stroke="null" id="svg_115" d="m26.529434,163.302322c0,0 5.68457,1.26712 10.414749,6.940933c6.957733,21.260254 20.583893,1.567673 25.434891,-5.357773c-5.248001,-8.716568 -10.15892,-11.824188 -12.434189,-13.148972c-3.147354,-1.832245 -5.145447,-5.035583 -8.582169,-6.478745c-2.77375,-1.1642 -5.683578,-1.487411 -8.62178,-1.817825c-2.37677,0.216171 -4.924133,0.807007 -7.423744,2.072083c-11.387428,5.762314 -9.227898,21.190262 1.212242,17.790298z" fill="#627377"/>
    <path stroke="null" id="svg_116" d="m22.162682,151.014938c0,0 -4.119972,4.50856 -2.404152,7.612045c1.715782,3.102493 3.734177,3.607895 6.952637,2.744293c3.21843,-0.86467 8.409599,-6.956375 9.711212,-9.763458s1.977768,-6.368591 -3.617493,-5.72319c-5.5942,0.645432 -8.477608,2.164764 -10.642204,5.13031z" fill="#7B898D"/>
    <path stroke="null" id="svg_117" d="m62.746597,153.136414c0,0 2.976837,7.876648 3.294586,11.427902c0,0 16.556244,-4.832794 23.400253,-4.668106c0,0 -4.451004,-12.105194 -10.338593,-14.851532c-0.001038,0 -5.330246,5.870438 -16.356247,8.091736z" fill="#7B898D"/>
    <path stroke="null" id="svg_118" d="m52.885162,158.586884c0,0 5.037827,4.360336 6.309952,8.233765c0,0 -7.959793,3.384521 -17.35318,8.221451c0,0 -1.589951,-4.681503 -3.021492,-5.97229c0,0 8.543617,-4.029953 14.06472,-10.482925z" fill="#7B898D"/>
    <path stroke="null" id="svg_119" d="m93.099518,164.525192c-26.899933,-0.066925 -49.879852,14.176239 -49.879852,14.176239s-1.701614,8.443787 6.571915,15.549393c5.072357,4.355209 3.922058,8.524094 2.273224,11.099548c0.002029,0.013367 0.00914,0.023636 0.010147,0.037033c0.572617,7.508118 10.494965,5.547195 16.006989,3.052032c5.868332,-27.318008 26.602432,-28.205292 26.602432,-28.205292c3.983994,-11.457718 -1.584854,-15.708954 -1.584854,-15.708954z" fill="#7B898D"/>
    <path stroke="null" id="svg_120" d="m43.219666,178.700409c0,0 23.882507,-15.050186 49.879852,-14.17627c0,0.000031 -24.089615,3.645996 -49.879852,14.17627z" fill="#95A5A7"/>
    <path stroke="null" id="svg_121" d="m121.367035,229.322952c0,0 -22.221512,-3.352585 -39.911804,14.328598c0,0 34.128754,54.717316 60.516953,68.930603c0,0 -26.22879,-16.795959 -53.793732,-68.233749c0,0 7.583145,-12.220459 33.188583,-15.025452z" fill="#FFFFFF"/>
    <path stroke="null" id="svg_122" d="m116.202286,445.004303c0,0 2.219421,17.967316 23.440872,20.560303s33.954132,3.459656 39.273163,-23.434235c3.615417,-14.84436 -1.741211,-20.778595 -1.741211,-20.778595s8.867493,-13.751038 27.96701,-12.988312c0,0 -21.00824,-3.776703 -31.309296,11.818024c0,0 4.665192,7.963043 1.900604,20.225739c-2.844818,12.619843 -3.620514,26.678772 -35.664886,21.929321c-21.326019,-4.205963 -23.866257,-17.332245 -23.866257,-17.332245z" fill="#FFFFFF"/>
    <path stroke="null" id="svg_123" d="m480.296021,288.706329c0.005066,-9.843689 -9.226929,-9.847809 -20.211243,-6.625916c-8.647156,2.536316 -15.401917,8.45816 -17.893311,10.869965c-3.035706,2.346893 -5.034851,5.255829 -5.034851,5.255829c-8.600464,11.937439 -6.694763,20.329742 -6.694763,20.329742c1.27417,-3.227051 7.328247,-13.55246 16.880066,-16.452148c-7.365906,4.794739 -13.209839,16.85257 -15.021118,20.903076c-1.147217,2.135895 -2.005188,4.127716 -2.181763,5.553345c-0.638611,5.164246 8.909058,9.686188 25.466248,0.657776c7.888794,-4.301697 13.071838,-7.728394 15.682129,-11.355835c0.18573,-0.192474 0.365479,-0.370544 0.559387,-0.577454c2.081299,-2.218292 4.388123,-6.5755 5.938354,-11.348633c1.968689,-4.356232 2.507813,-10.395447 2.510864,-17.209747z" fill="#7B898D"/>
    <path stroke="null" id="svg_124" d="m461.189453,302.896973c0,0 -4.725159,0.900696 -7.198425,-0.29129c-0.184753,-0.124573 -0.381653,-0.243988 -0.601013,-0.359283c-6.205383,-3.230103 -13.372314,4.188446 -13.372314,4.188446s-10.195496,18.068237 -4.302795,9.680023c5.893738,-8.388184 11.784485,-13.065552 15.922729,-11.933258c4.137268,1.131256 0.048767,8.768005 0.048767,8.768005s1.459961,-1.381378 2.633667,-3.212616c0.573608,-0.625793 4.232666,-4.614563 6.869385,-6.840027z" fill="#627377"/>
    <path stroke="null" id="svg_125" d="m38.496574,178.590286c0,0 -15.121651,1.44519 -19.899582,8.058807c-4.778931,6.613571 4.135246,7.42572 12.569229,9.366058s17.505501,5.657318 18.780693,2.752457c1.27417,-2.903763 -13.682976,-10.819489 -21.641769,-10.984177c0,0 7.641037,-0.479691 9.867523,0.165741c2.229607,0.64743 2.869232,-4.838974 0.323906,-9.358887z" fill="#7B898D"/>
    <path stroke="null" id="svg_126" d="m16.573578,201.817596c0,0 -1.59301,1.397903 -2.593048,3.455536c-0.990913,1.84256 -1.082275,2.697937 0.148232,4.773163c1.214272,2.048386 3.738274,3.657257 5.886597,4.683548c5.410439,2.584671 7.821747,3.249664 12.525543,1.832214c1.922974,-1.351501 3.486504,-3.821976 4.083473,-5.588348c0,-0.001022 -12.944839,-2.159576 -20.050797,-9.156113z" fill="#7B898D"/>
    <path stroke="null" id="svg_127" d="m38.496574,178.590286c0,0 -11.301163,0.747284 -17.670006,5.692307c-6.368881,4.944992 -3.930153,8.389206 0.525932,9.575027s26.206474,7.651154 28.329445,5.50087c0.955383,-0.86055 0.107635,-1.829193 0.107635,-1.829193s-1.062027,1.505981 -7.745621,-0.112167c-6.683601,-1.617126 -14.854607,-4.202866 -18.461914,-5.387634c-3.607315,-1.185806 -6.153641,-2.584717 -1.482315,-6.132904c4.670326,-3.546066 9.870621,-5.802444 16.396843,-7.306305z" fill="#95A5A7"/>
    <path stroke="null" id="svg_128" d="m99.164825,179.255234c-0.024399,0.129684 -0.049774,0.28923 -0.075165,0.43541c4.842911,-0.629959 9.748734,-0.07309 14.663757,0.667023c0.329956,-2.052536 0.587845,-4.080353 0.741135,-5.935257c1.052872,-5.440155 1.530029,-11.545227 -0.193909,-14.190643c-2.629578,-4.035095 -6.49678,-5.489548 -10.520355,-4.524033c-4.024582,0.965576 -4.798233,2.417953 -3.87027,4.355225c0,0 2.319946,3.067444 0.769592,9.198288c-1.107666,4.384018 -1.423416,8.180267 -1.514786,9.993988z" fill="#7B898D"/>
    <path stroke="null" id="svg_129" d="m100.337463,170.633392c0,0 1.196014,-5.324844 0.481262,-7.907486s-3.578903,-5.326904 1.833603,-6.77626c5.41246,-1.450333 12.494064,0.086502 12.968185,9.446365c-0.003052,7.019165 -1.59906,14.281296 -1.59906,14.281296s1.040665,-13.716156 -0.627487,-17.670944c-1.67009,-3.953735 -5.011398,-5.085999 -7.876541,-4.764862s-4.616486,0.562027 -3.662109,3.225998c0.954346,2.662933 -1.517853,10.165894 -1.517853,10.165894z" fill="#95A5A7"/>
    <path stroke="null" id="svg_130" d="m47.747818,139.38121c0,0 -3.498642,-5.810699 5.734314,-9.840622c9.232986,-4.0289 14.882019,0.168793 15.359207,0.975815c0,0 -6.364807,-3.311432 -14.802826,0.718491c-8.436981,4.029907 -6.290695,8.146317 -6.290695,8.146317z" fill="#95A5A7"/>
    <path stroke="null" id="svg_131" d="m20.837746,160.346008c0,0 -4.932243,-4.602219 2.552452,-11.053192s13.053474,-3.624329 13.690041,-2.333542c0,0 -4.615463,-1.535812 -12.098099,4.027847c-7.484657,5.564697 -4.144394,9.358887 -4.144394,9.358887z" fill="#95A5A7"/>
    <path stroke="null" id="svg_132" d="m472.342285,280.309875c4.457092,0.48587 7.957825,2.585754 7.156738,14.043457c-0.527954,7.554443 -3.436768,14.288452 -4.527161,16.585999c-3.676331,5.088074 -10.346741,11.928131 -21.592041,16.484009c-13.065674,5.290894 -26.160767,8.055725 -18.301453,-6.141113s8.760925,-13.927124 13.219971,-16.937988c0,0 -9.12738,3.438049 -15.712524,16.77536c-6.586121,13.336273 0.627502,19.150085 22.279419,9.048004c7.366882,-3.437012 12.494019,-7.547211 16.057678,-11.476257c3.841797,-3.526581 8.169983,-8.549805 10.008667,-23.691559c2.075256,-17.104736 -8.589294,-14.689911 -8.589294,-14.689911z" fill="#95A5A7"/>
    <path stroke="null" id="svg_133" d="m92.276093,547.518555c0,0 -25.461258,-12.923523 -13.984497,-46.912781c11.476776,-33.991241 40.771744,-51.18869 78.116898,-37.399475l39.470169,8.625977c0,0 18.667999,17.223145 17.802979,49.066223l-121.405548,26.620056z" fill="#425356"/>
    <path stroke="null" id="svg_134" d="m94.399063,548.381165c0,0 -16.549088,-9.47522 -6.351608,-30.987671c10.197495,-21.511353 19.96553,-34.846649 62.406403,-26.219604c42.440857,8.626984 64.085724,12.511719 63.228821,29.723511c-0.856903,17.211853 -16.570465,33.987244 -69.193604,16.748657c0,0.002014 -26.326294,21.074951 -50.090012,10.735107z" fill="#122B2A"/>
    <path stroke="null" id="svg_135" d="m327.906128,125.702118c-7.712097,1.400955 -16.205933,-3.940346 -19.552307,-11.009941c-3.061127,-6.466393 -3.503784,-16.367744 1.318848,-22.166084l-0.261932,-0.477623c-0.655853,0.344826 -1.304657,0.704063 -1.95752,1.054062c-1.285309,0.90274 -2.652863,1.697411 -4.064148,2.400452c-1.171661,2.092659 -4.823608,10.24823 1.586884,21.735809c7.474487,13.398048 18.722839,11.575081 18.722839,11.575081l4.352539,-2.849258l-0.145203,-0.262497z" fill="#95A5A7"/>
    <path stroke="null" id="svg_136" d="m77.95961,531.697388c0,0 -12.085922,-22.921631 7.026764,-47.117584c19.111694,-24.195892 29.81485,-31.357178 60.813461,-24.821838c29.921417,6.307922 34.057648,8.731018 34.057648,8.731018s-46.139511,-7.376343 -59.844864,-4.225525c-14.008881,3.220825 -26.111038,14.832977 -35.350113,30.321686c-9.239075,15.486572 -9.56395,27.428101 -6.702896,37.112244z" fill="#627377"/>
    <path stroke="null" id="svg_137" d="m311.618896,93.520439l-2.149384,2.33252c0,0 -3.903717,8.208054 0.229492,16.923592c4.453033,8.286278 11.028961,12.485023 15.804932,11.304359c1.910706,-0.644379 2.334045,-1.182739 2.334045,-1.182739l1.2742,-1.828133c0,0 1.696564,1.506996 -0.319824,4.194633c-2.017365,2.68763 -9.657318,1.715935 -13.58139,-1.189949c-3.925079,-2.906891 -7.955811,-6.566254 -9.860443,-15.389854c-2.004181,-9.27755 1.386932,-15.275612 4.040802,-16.673454c2.229614,-1.396835 3.714905,-0.536301 3.714905,-0.536301l-1.487335,2.045326z" fill="#425356"/>
    <path stroke="null" id="svg_138" d="m160.299088,183.451935c0,0 -5.293686,3.8302 -1.319839,13.675964s8.749664,8.315125 8.749664,8.315125l-3.501709,0.885239c0,0 -5.01445,0.078262 -8.113098,-10.171005c-2.542267,-9.764481 0.762466,-11.860214 0.762466,-11.860214l3.422516,-0.845108z" fill="#7B898D"/>
    <path stroke="null" id="svg_139" d="m160.995544,195.541656c-3.089493,-7.935287 0.383759,-10.457184 1.43866,-11.016129c0.291397,-0.137939 0.418289,-0.202774 0.611206,-0.217194c0.1604,-0.012344 0.158417,-0.018524 0.316757,-0.036011l0.16449,-0.061768c-0.184784,-0.271744 -0.287338,-0.474518 -0.501572,-0.882141c-0.777679,-0.290283 -1.642685,-0.250153 -2.695557,0.027756c-2.874252,1.982574 -4.429672,5.440155 -1.774704,12.828842c4.079407,11.3517 10.07666,9.25798 10.07666,9.25798l1.519882,-0.564041c0.225403,-0.187378 0.408142,-0.401474 0.568573,-0.633087c-2.266129,-0.071014 -6.808487,-1.215668 -9.724396,-8.704208z" fill="#717272"/>
    <g stroke="null" id="svg_140">
     <circle stroke="null" id="svg_141" r="6.149373" cy="246.774604" cx="207.023428" fill="#FFFFFF" opacity="0.1"/>
     <circle stroke="null" id="svg_142" r="1.154325" cy="246.774604" cx="207.023428" fill="#FFFFFF"/>
    </g>
    <path stroke="null" id="svg_143" d="m348.527496,240.06633c0,0 -13.536774,15.969406 -1.135071,44.215866c9.540619,18.078522 18.134979,20.342072 18.134979,20.342072l-0.955353,2.097809c0,0 -10.662506,-4.200775 -18.931,-21.471283c-7.346588,-15.345581 -8.738556,-31.634079 1.933044,-46.959061l0.9534,1.774597z" fill="#1DACE3"/>
    <path stroke="null" id="svg_144" d="m172.020508,219.861145c0,0 1.43866,-11.188049 16.244537,-19.088333c14.805908,-7.900284 21.651947,-9.510178 26.108002,-9.024323l6.208496,-2.740143c0,0 4.78299,-15.166504 46.326355,-18.212341c20.055847,-1.926941 35.761292,-0.627914 38.412231,0.503326c0,0 -44.937469,-1.15181 -66.908203,8.680542c-15.123657,6.770065 -16.878052,13.708954 -16.878052,13.708954l-4.45813,2.095734c0,0 -8.115173,-4.52298 -27.540558,7.570892c-19.424408,12.093857 -15.768372,20.37912 -15.768372,20.37912s-0.89444,-1.428741 -1.21933,-2.205902c-0.322876,-0.777115 -0.526978,-1.667526 -0.526978,-1.667526z" fill="#909A9D"/>
    <path stroke="null" id="svg_145" d="m434.274231,475.736664c0,0 8.655334,-48.106812 -16.588684,-80.824768c0,0 17.350159,12.703217 20.862061,43.688751c3.512878,30.986664 -4.273376,37.136017 -4.273376,37.136017z" fill="#C7C7C7"/>
    <path stroke="null" id="svg_146" d="m417.018524,469.791107c0,0 0.011169,-23.560791 -45.81366,-54.675079l-2.177734,2.73291c-0.001068,-0.002045 39.940155,25.902618 47.991394,51.942169z" fill="#F2F2F2"/>
    <path stroke="null" id="svg_147" d="m264.545288,448.036743c0,0 0.796021,-1.371124 3.422516,-1.854889s16.555206,-3.211548 21.807251,-0.994354s17.738037,10.514862 17.738037,10.514862s-9.758881,2.84201 -23.182983,3.479187c-13.423035,0.639252 -19.784821,-11.144806 -19.784821,-11.144806z" fill="#017499"/>
    <path stroke="null" id="svg_148" d="m255.033142,445.334717c0,0 13.407867,1.179596 37.417267,-4.259491l1.202057,1.967102c0,0 -19.449768,4.957336 -38.619324,3.83847l0,-1.546082z" fill="#1DACE3"/>
    <path stroke="null" id="svg_149" d="m161.935715,272.754425c0,0 -34.727768,13.755249 -15.227219,64.298553l2.971741,0.001007c0,0 -20.010208,-44.964203 15.893265,-63.489441l-3.637787,-0.81012z" fill="#DCDCDB"/>
    <path stroke="null" id="svg_150" d="m150.72699,265.676605c-0.039597,-0.460144 -0.044693,-0.921265 -0.011185,-1.384491c-0.093399,-0.505402 -0.142136,-1.023163 -0.171555,-1.549164c-9.440109,-0.747314 -34.532822,1.580048 -44.819702,44.807709l2.446838,1.707703c0.001038,0.001007 7.781128,-43.550873 42.555603,-43.581757z" fill="#DCDCDB"/>
    <path stroke="null" id="svg_151" d="m137.661301,248.808594c0.051773,-0.458054 0.138046,-0.91098 0.261917,-1.358749c0.008118,-0.513626 0.062988,-1.031387 0.137085,-1.552261c-9.103027,-2.644409 -34.149063,-5.446289 -52.746994,34.826111l2.062012,2.168823c0,0 16.205963,-41.097916 50.28598,-34.083923z" fill="#DCDCDB"/>
    <path stroke="null" id="svg_152" d="m459.139587,260.776886c0,0 23.159607,-14.189621 46.160889,-6.351105l0.000977,-2.824524c0,0 -18.855835,-9.470078 -48.56604,6.511688l2.404175,2.66394z" fill="#DCDCDB"/>
    <path stroke="null" id="svg_153" d="m453.416443,246.977402c0,0 24.689636,-19.099655 47.600525,-9.894165l1.429504,-2.426147c0,0 -19.400024,-12.375916 -49.918396,9.556488l0.888367,2.763824z" fill="#DCDCDB"/>
    <path stroke="null" id="svg_154" d="m452.46814,233.744019c24.355591,-21.260239 45.201416,-9.770615 42.344482,-11.140686l-0.158447,-2.474564c0,0 -16.283142,-10.544724 -43.033813,10.468506l0.847778,3.146744z" fill="#DCDCDB"/>
    <path stroke="null" id="svg_155" d="m455.020569,223.014038c0,0 7.543579,-20.571579 18.793884,-23.470261l-3.819458,-1.127121c0,0 -10.984375,3.299042 -18.051697,24.994705l3.077271,-0.397324z" fill="#DCDCDB"/>
    <path stroke="null" id="svg_156" d="m446.994751,197.262756c0,0 -9.581299,6.655777 -4.013428,25.458969l-2.26709,1.468903c0,0 -6.377014,-17.216965 2.778809,-26.929916l3.501709,0.002045z" fill="#DCDCDB"/>
    <path stroke="null" id="svg_157" d="m429.153198,227.12735c0,0 -8.252197,-8.497314 -5.47345,-24.045654l-2.651855,-0.001053c0,0 -3.020538,13.296158 5.653076,25.38797l2.472229,-1.341263z" fill="#DCDCDB"/>
    <path stroke="null" id="svg_158" d="m115.498703,448.554504c0,0 23.099747,-17.416656 66.170059,4.335602l-0.847748,-3.443115c0,0 -30.125504,-21.101776 -66.548782,-6.49942l1.226471,5.606934z" fill="#DCDCDB"/>
    <path stroke="null" id="svg_159" d="m119.576065,421.345642c0,0 40.799149,-14.510742 61.586075,8.41391l2.37677,-3.387634c0,0 -17.321747,-22.278229 -62.150543,-9.471039l-1.812302,4.444763z" fill="#DCDCDB"/>
    <path stroke="null" id="svg_160" d="m134.367706,402.625824c0,0 37.038605,-10.417023 48.220917,15.193207l2.468109,-1.046814c0,0 -7.113037,-26.651001 -48.267532,-16.857697c-0.001022,-0.001038 -1.187912,0.976837 -2.421494,2.711304z" fill="#DCDCDB"/>
    <path stroke="null" id="svg_161" d="m162.942871,388.802643c0,0 28.254303,-2.716431 33.875916,22.138306l2.591003,-0.859497c0,0 -3.732178,-23.13678 -29.633026,-22.124908c0.001038,-0.000031 -2.80423,0.116272 -6.833893,0.8461z" fill="#DCDCDB"/>
   </g>
   <path stroke="null" id="svg_162" d="m245.68338,11.226779c-2.680359,-0.373663 -5.411407,-0.559977 -8.195343,-0.570265c-18.4711,-0.006173 -39.828552,7.821023 -69.261627,25.390021c-34.595749,20.643681 -51.463684,41.56319 -53.068832,65.810642c-1.416306,21.454803 9.145645,42.998138 23.100723,68.912064c25.743515,47.78566 51.822083,100.368088 52.081024,100.892014l1.025421,2.054565l2.188934,0.606323c0.147186,0.038086 1.462006,0.399384 3.807312,0.834808c-4.313934,-0.654694 -6.756714,-1.315521 -6.954712,-1.374176l-2.188934,-0.606293l-1.014282,-2.057678c-0.258881,-0.523956 -26.344574,-53.093002 -52.080963,-100.892014c-13.956085,-25.913956 -24.525192,-47.443916 -23.100739,-68.912079c1.605148,-24.247437 18.464935,-45.153591 53.057678,-65.807541c29.437103,-17.558712 50.804749,-25.389004 69.264648,-25.379736c3.881439,-0.004131 7.661316,0.366437 11.339691,1.099343z" fill="#FFFFFF" opacity="0.3"/>
  </g>
 </g>
</svg>
